<?xml version="1.0" encoding="UTF-8" standalone="no"?>
<!-- Created with Inkscape (http://www.inkscape.org/) -->

<svg
   xmlns:dc="http://purl.org/dc/elements/1.1/"
   xmlns:cc="http://creativecommons.org/ns#"
   xmlns:rdf="http://www.w3.org/1999/02/22-rdf-syntax-ns#"
   xmlns:svg="http://www.w3.org/2000/svg"
   xmlns="http://www.w3.org/2000/svg"
   xmlns:sodipodi="http://sodipodi.sourceforge.net/DTD/sodipodi-0.dtd"
   xmlns:inkscape="http://www.inkscape.org/namespaces/inkscape"
   id="svg2"
   version="1.1"
   inkscape:version="0.48.1 "
   width="130.34885"
   height="463.48984"
   xml:space="preserve"
   sodipodi:docname="hierarchySimple.svg"><sodipodi:namedview
     pagecolor="#ffffff"
     bordercolor="#666666"
     borderopacity="1"
     objecttolerance="10"
     gridtolerance="10"
     guidetolerance="10"
     inkscape:pageopacity="0"
     inkscape:pageshadow="2"
     inkscape:window-width="1440"
     inkscape:window-height="850"
     id="namedview4"
     showgrid="false"
     inkscape:zoom="1.0483929"
     inkscape:cx="16.086074"
     inkscape:cy="301.74683"
     inkscape:window-x="-8"
     inkscape:window-y="-8"
     inkscape:window-maximized="1"
     inkscape:current-layer="g10"
     fit-margin-top="0"
     fit-margin-left="0"
     fit-margin-right="0"
     fit-margin-bottom="0" /><metadata
     id="metadata8"><rdf:RDF><cc:Work
         rdf:about=""><dc:format>image/svg+xml</dc:format><dc:type
           rdf:resource="http://purl.org/dc/dcmitype/StillImage" /><dc:title /></cc:Work></rdf:RDF></metadata><defs
     id="defs6"><marker
       inkscape:stockid="Arrow1Lend"
       orient="auto"
       refY="0"
       refX="0"
       id="Arrow1Lend"
       style="overflow:visible"><path
         inkscape:connector-curvature="0"
         id="path4396"
         d="M 0,0 5,-5 -12.5,0 5,5 0,0 z"
         style="fill-rule:evenodd;stroke:#000000;stroke-width:1pt;marker-start:none"
         transform="matrix(-0.8,0,0,-0.8,-10,0)" /></marker><marker
       inkscape:stockid="Arrow1Mend"
       orient="auto"
       refY="0"
       refX="0"
       id="Arrow1Mend"
       style="overflow:visible"><path
         inkscape:connector-curvature="0"
         id="path4402"
         d="M 0,0 5,-5 -12.5,0 5,5 0,0 z"
         style="fill-rule:evenodd;stroke:#000000;stroke-width:1pt;marker-start:none"
         transform="matrix(-0.4,0,0,-0.4,-4,0)" /></marker><marker
       inkscape:stockid="Arrow1Mend"
       orient="auto"
       refY="0"
       refX="0"
       id="Arrow1Mend-0"
       style="overflow:visible"><path
         inkscape:connector-curvature="0"
         id="path4402-1"
         d="M 0,0 5,-5 -12.5,0 5,5 0,0 z"
         style="fill-rule:evenodd;stroke:#000000;stroke-width:1pt;marker-start:none"
         transform="matrix(-0.4,0,0,-0.4,-4,0)" /></marker><marker
       inkscape:stockid="Arrow1Mend"
       orient="auto"
       refY="0"
       refX="0"
       id="Arrow1Mend-2"
       style="overflow:visible"><path
         inkscape:connector-curvature="0"
         id="path4402-8"
         d="M 0,0 5,-5 -12.5,0 5,5 0,0 z"
         style="fill-rule:evenodd;stroke:#000000;stroke-width:1pt;marker-start:none"
         transform="matrix(-0.4,0,0,-0.4,-4,0)" /></marker><marker
       inkscape:stockid="Arrow1Mend"
       orient="auto"
       refY="0"
       refX="0"
       id="Arrow1Mend-5"
       style="overflow:visible"><path
         inkscape:connector-curvature="0"
         id="path4402-5"
         d="M 0,0 5,-5 -12.5,0 5,5 0,0 z"
         style="fill-rule:evenodd;stroke:#000000;stroke-width:1pt;marker-start:none"
         transform="matrix(-0.4,0,0,-0.4,-4,0)" /></marker><marker
       inkscape:stockid="Arrow1Mend"
       orient="auto"
       refY="0"
       refX="0"
       id="Arrow1Mend-5-3"
       style="overflow:visible"><path
         inkscape:connector-curvature="0"
         id="path4402-5-8"
         d="M 0,0 5,-5 -12.5,0 5,5 0,0 z"
         style="fill-rule:evenodd;stroke:#000000;stroke-width:1pt;marker-start:none"
         transform="matrix(-0.4,0,0,-0.4,-4,0)" /></marker></defs><g
     transform="matrix(1.25,0,0,-1.25,-90.838921,901.08195)"
     inkscape:label="hierarchy"
     inkscape:groupmode="layer"
     id="g10"><g
   id="g3589"
   transform="translate(-614.34883,-284.49414)"><path
     inkscape:connector-curvature="0"
     id="path58"
     style="fill:#666666;fill-opacity:0.63218402;fill-rule:nonzero;stroke:none"
     d="m 771.18229,677.06463 c 0,-22.801 -18.484,-41.286 -41.285,-41.286 -22.801,0 -41.28499,18.485 -41.28499,41.286 0,22.8 18.484,41.285 41.28499,41.285 22.80101,0 41.285,-18.485 41.285,-41.285 z" /><path
     inkscape:connector-curvature="0"
     id="path60"
     style="fill:none;stroke:#666666;stroke-width:2.4216001;stroke-linecap:butt;stroke-linejoin:miter;stroke-miterlimit:4;stroke-opacity:1;stroke-dasharray:none"
     d="m 771.18229,677.06463 c 0,-22.801 -18.484,-41.286 -41.285,-41.286 -22.801,0 -41.28499,18.485 -41.28499,41.286 0,22.8 18.484,41.285 41.28499,41.285 22.80101,0 41.285,-18.485 41.285,-41.285 z" /><path
     inkscape:connector-curvature="0"
     id="path84"
     style="fill:#000000;fill-opacity:1;fill-rule:nonzero;stroke:none"
     d="m 737.4821,685.75974 0.53961,0.536 c 1.146,1.15232 2.40028,2.44991 5.00179,2.64031 0.42682,0.0388 0.76881,0.0388 0.76881,0.72911 0,0.29958 -0.1904,0.45118 -0.4972,0.45118 l -6.96172,0 c -0.21837,0 -0.72279,0 -0.72279,-0.7255 0,-0.41599 0.3844,-0.45479 0.56758,-0.45479 0.26801,0 1.38152,-0.0776 1.38152,-0.88161 0,-0.6515 -0.8771,-1.64229 -1.0323,-1.8363 l -8.8648,-10.20391 -4.20591,11.35622 c -0.23191,0.52879 -0.23191,0.60639 -0.23191,0.64519 0,0.92041 1.87872,0.92041 2.25591,0.92041 0.53149,0 0.91589,0 0.91589,0.76159 0,0.4187 -0.45479,0.4187 -0.57119,0.4187 l -9.10122,0 c -0.2283,0 -0.72189,0 -0.72189,-0.75708 0,-0.42321 0.3808,-0.42321 0.8771,-0.42321 2.2947,0 2.4463,-0.3456 2.7919,-1.2976 l 4.6986,-12.58343 c 0.0388,-0.10918 0.1516,-0.52878 0.1516,-0.64519 0,-0.1164 -1.52229,-6.27051 -1.71269,-6.95811 -0.50442,-2.1043 -0.54322,-2.22071 -3.59591,-2.25951 -0.7255,0 -1.0323,0 -1.0323,-0.75798 0,-0.42231 0.4584,-0.42231 0.53239,-0.42231 l 9.70671,0 c 0.268,0 0.73001,0 0.73001,0.76791 0,0.41238 -0.34561,0.41238 -1.07471,0.41238 -0.0677,0 -0.79318,0 -1.4492,0.0776 -0.80039,0.0776 -1.02959,0.15521 -1.02959,0.61361 0,0.27161 0.3456,1.60349 0.53961,2.41111 l 1.3364,5.3862 c 0.1904,0.7291 0.22198,0.84551 0.5351,1.19111 l 9.4748,10.8879 z" /></g><g
   id="g3215"
   transform="translate(0,-1.2207031e-5)"><path
     inkscape:connector-curvature="0"
     id="path50-4-4"
     style="fill:#666666;fill-opacity:0.00088884;fill-rule:nonzero;stroke:none"
     d="m 155.23714,678.36977 c 0,-22.801 -18.484,-41.285 -41.285,-41.285 -22.801003,0 -41.281003,18.484 -41.281003,41.285 0,22.801 18.48,41.285 41.281003,41.285 22.801,0 41.285,-18.484 41.285,-41.285 z" /><path
     inkscape:connector-curvature="0"
     id="path52-0-7"
     style="fill:none;stroke:#666666;stroke-width:2.4216001;stroke-linecap:butt;stroke-linejoin:miter;stroke-miterlimit:4;stroke-opacity:1;stroke-dasharray:none"
     d="m 157.21499,678.36977 c 0,-22.801 -18.485,-41.285 -41.285,-41.285 -22.801,0 -41.282,18.484 -41.282,41.285 0,22.801 18.481,41.285 41.282,41.285 22.8,0 41.285,-18.484 41.285,-41.285 z" /><g
     transform="matrix(2.2833142,0,0,-2.2833142,-144.60225,1106.3029)"
     id="g3205"><g
       style="font-style:normal;font-variant:normal;font-weight:normal;font-stretch:normal;letter-spacing:normal;word-spacing:normal;text-anchor:start;fill:none;stroke:#000000;stroke-linecap:butt;stroke-linejoin:miter;stroke-miterlimit:10.43299961;stroke-opacity:1;stroke-dasharray:none;stroke-dashoffset:0"
       id="content"
       transform="matrix(0.37688613,0,0,-0.37688613,-65.955072,346.84416)"
       xml:space="preserve"
       stroke-miterlimit="10.433"
       font-style="normal"
       font-variant="normal"
       font-weight="normal"
       font-stretch="normal"
       font-size-adjust="none"
       letter-spacing="normal"
       word-spacing="normal"><path
         style="fill:#000000;stroke-width:0"
         inkscape:connector-curvature="0"
         d="m 491.87,438.83 0.01,0.04 0.01,0.03 0.01,0.04 0.01,0.05 0.01,0.04 0.01,0.04 0.02,0.05 0.01,0.04 0.01,0.05 0.01,0.05 0.01,0.05 0.01,0.05 0.01,0.05 0,0.03 0,0.02 0,0.03 0,0.03 0.01,0.03 0,0.02 c 0,0.45 -0.25,0.45 -1.25,0.45 h -21.02 c -1.2,0 -1.25,-0.05 -1.55,-0.99 l -2.74,-8.97 c -0.1,-0.25 -0.14,-0.6 -0.14,-0.7 0,-0.05 0,-0.55 0.59,-0.55 0.45,0 0.55,0.35 0.65,0.5 1.89,5.88 4.48,9.17 12.25,9.17 h 8.12 l -27.84,-31.14 c 0,-0.04 -0.2,-0.74 -0.2,-0.89 0,-0.45 0.35,-0.45 1.24,-0.45 h 21.67 c 1.2,0 1.25,0.05 1.55,1 l 3.53,11 c 0.05,0.2 0.2,0.55 0.2,0.75 0,0.25 -0.2,0.55 -0.64,0.55 -0.45,0 -0.5,-0.2 -0.85,-1.25 -2.19,-6.77 -4.58,-10.35 -13.05,-10.35 h -8.52 z"
         id="path3208" /></g></g></g>












<g
   id="g3208"
   transform="translate(0,-13.599754)"><path
     inkscape:connector-curvature="0"
     id="path50-4-4-5"
     style="fill:#666666;fill-opacity:0.00088884;fill-rule:nonzero;stroke:none"
     d="m 155.23714,549.06988 c 0,-22.801 -18.484,-41.285 -41.285,-41.285 -22.801002,0 -41.281002,18.484 -41.281002,41.285 0,22.801 18.48,41.285 41.281002,41.285 22.801,0 41.285,-18.484 41.285,-41.285 z" /><path
     inkscape:connector-curvature="0"
     id="path52-0-7-3"
     style="fill:none;stroke:#666666;stroke-width:2.4216001;stroke-linecap:butt;stroke-linejoin:miter;stroke-miterlimit:4;stroke-opacity:1;stroke-dasharray:none"
     d="m 157.21499,549.06988 c 0,-22.801 -18.485,-41.285 -41.285,-41.285 -22.800999,0 -41.281999,18.484 -41.281999,41.285 0,22.801 18.481,41.285 41.281999,41.285 22.8,0 41.285,-18.484 41.285,-41.285 z" /><g
     transform="matrix(3.5828127,0,0,-3.5828127,-148.9459,2737.0658)"
     id="g3143"><g
       style="font-style:normal;font-variant:normal;font-weight:normal;font-stretch:normal;letter-spacing:normal;word-spacing:normal;text-anchor:start;fill:none;stroke:#000000;stroke-linecap:butt;stroke-linejoin:miter;stroke-miterlimit:10.43299961;stroke-opacity:1;stroke-dasharray:none;stroke-dashoffset:0"
       id="g3145"
       transform="matrix(0.2441022,0,0,-0.2441022,-42.717885,713.94992)"
       xml:space="preserve"
       stroke-miterlimit="10.433"
       font-style="normal"
       font-variant="normal"
       font-weight="normal"
       font-stretch="normal"
       font-size-adjust="none"
       letter-spacing="normal"
       word-spacing="normal"><path
         style="fill:#000000;stroke-width:0"
         inkscape:connector-curvature="0"
         d="m 480.16,426.47 -4.18,9.92 c -0.16,0.4 -0.25,0.59 -0.25,0.65 0,0.29 0.84,1.24 2.93,1.44 0.5,0.05 1,0.1 1,0.95 0,0.59 -0.6,0.59 -0.75,0.59 h -11.85 c -0.3,0 -0.9,0 -0.9,-0.99 0,-0.55 0.5,-0.55 1.15,-0.55 2.99,0 3.28,-0.5 3.73,-1.6 l 5.88,-13.9 -10.51,-11.3 -0.65,-0.55 c -2.44,-2.64 -4.78,-3.43 -7.32,-3.59 -0.65,-0.04 -1.1,-0.04 -1.1,-0.99 0,-0.05 0,-0.55 0.65,-0.55 h 10.26 c 0.3,0 0.9,0 0.9,1 0,0.5 -0.5,0.54 -0.6,0.54 -0.44,0.05 -1.99,0.16 -1.99,1.55 0,0.8 0.75,1.59 1.35,2.24 l 5.07,5.38 4.49,4.88 5.03,-11.9 c 0.2,-0.55 0.25,-0.6 0.25,-0.7 0,-0.4 -0.95,-1.25 -2.89,-1.45 -0.55,-0.04 -1,-0.09 -1,-0.94 0,-0.6 0.55,-0.6 0.75,-0.6 h 11.81 c 0.35,0 0.94,0 0.94,0.95 0,0.59 -0.49,0.59 -0.89,0.59 -3.34,0.05 -3.44,0.2 -4.29,2.19 -1.94,4.64 -5.28,12.41 -6.42,15.4 3.38,3.48 8.62,9.41 10.21,10.81 1.44,1.19 3.33,2.39 6.33,2.54 0.64,0.05 1.09,0.05 1.09,0.99 0,0.05 0,0.55 -0.65,0.55 h -10.21 c -0.3,0 -0.94,0 -0.94,-0.99 0,-0.35 0.25,-0.5 0.59,-0.55 0.45,-0.05 2,-0.15 2,-1.55 0,-0.69 -0.55,-1.34 -0.95,-1.79 z"
         id="path3147" /></g></g></g><path
   style="fill:none;stroke:#000000;stroke-width:2.79999995;stroke-linecap:butt;stroke-linejoin:miter;stroke-miterlimit:4;stroke-opacity:1;stroke-dasharray:none;marker-end:url(#Arrow1Mend-5-3)"
   d="m 162.87746,104.72387 0,75.41636"
   id="path3222"
   inkscape:connector-type="polyline"
   inkscape:connector-curvature="0"
   inkscape:connection-start="#g3215"
   inkscape:connection-start-point="d4"
   inkscape:connection-end="#g3208"
   inkscape:connection-end-point="d4"
   transform="matrix(0.8,0,0,-0.8,-14.753502,720.86558)" /><path
   style="fill:none;stroke:#000000;stroke-width:2.79999995;stroke-linecap:butt;stroke-linejoin:miter;stroke-miterlimit:4;stroke-opacity:1;stroke-dasharray:none;marker-end:url(#Arrow1Mend-5-3)"
   d="m 162.87746,283.34841 0,75.4142"
   id="path3224"
   inkscape:connector-type="polyline"
   inkscape:connector-curvature="0"
   inkscape:connection-start="#g3208"
   inkscape:connection-start-point="d4"
   inkscape:connection-end="#g3589"
   inkscape:connection-end-point="d4"
   transform="matrix(0.8,0,0,-0.8,-14.753502,720.86558)" /><g
   id="g4257"
   transform="matrix(3.0254572,0,0,-3.0254572,-73.954828,2314.8974)"><g
     id="g4259"
     transform="matrix(0.2441022,0,0,-0.2441022,-42.717885,713.94992)"
     xml:space="preserve"
     stroke-miterlimit="10.433"
     font-style="normal"
     font-variant="normal"
     font-weight="normal"
     font-stretch="normal"
     font-size-adjust="none"
     letter-spacing="normal"
     word-spacing="normal"
     style="font-style:normal;font-variant:normal;font-weight:normal;font-stretch:normal;letter-spacing:normal;word-spacing:normal;text-anchor:start;fill:none;stroke:#000000;stroke-linecap:butt;stroke-linejoin:miter;stroke-miterlimit:10.43299961;stroke-opacity:1;stroke-dasharray:none;stroke-dashoffset:0"><path
       d="m 474.28,425.93 h 4.29 c 0.99,0 1.49,0 1.49,0.99 0,0.55 -0.5,0.55 -1.35,0.55 h -4.13 l 1.05,5.68 c 0.19,1.05 0.89,4.58 1.19,5.18 0.45,0.94 1.3,1.69 2.34,1.69 0.2,0 1.5,0 2.45,-0.89 -2.2,-0.2 -2.7,-1.95 -2.7,-2.69 0,-1.15 0.9,-1.75 1.85,-1.75 1.29,0 2.74,1.1 2.74,2.99 0,2.29 -2.29,3.44 -4.34,3.44 -1.69,0 -4.83,-0.9 -6.32,-5.83 -0.3,-1.05 -0.45,-1.54 -1.65,-7.82 h -3.43 c -0.95,0 -1.5,0 -1.5,-0.95 0,-0.59 0.45,-0.59 1.4,-0.59 h 3.29 l -3.74,-19.68 c -0.9,-4.83 -1.75,-9.37 -4.33,-9.37 -0.2,0 -1.45,0 -2.4,0.9 2.29,0.15 2.74,1.94 2.74,2.69 0,1.15 -0.89,1.74 -1.84,1.74 -1.29,0 -2.74,-1.09 -2.74,-2.98 0,-2.25 2.19,-3.44 4.24,-3.44 2.73,0 4.73,2.94 5.62,4.83 1.6,3.14 2.74,9.17 2.79,9.51 z"
       id="path4261"
       inkscape:connector-curvature="0"
       style="fill:#000000;stroke-width:0" /><path
       d="m 508.64,443.63 0.25,0.26 0.26,0.25 0.12,0.12 0.13,0.12 0.13,0.12 0.14,0.12 0.13,0.12 0.13,0.11 0.14,0.11 0.14,0.11 0.13,0.1 0.14,0.11 0.15,0.1 0.14,0.1 c 1.43,0.98 2.72,1.05 3.17,1.08 0.38,0.03 0.8,0.03 0.8,0.77 0,0.24 -0.21,0.49 -0.49,0.49 h -6.45 c -0.17,0 -0.69,0 -0.69,-0.77 0,-0.46 0.45,-0.49 0.62,-0.49 1.02,-0.07 1.02,-0.45 1.02,-0.66 0,-0.32 -0.21,-0.6 -0.46,-0.91 -0.21,-0.31 -0.38,-0.56 -0.59,-0.77 l -8.72,-9.09 -4.6,10.21 c -0.24,0.49 -0.24,0.56 -0.24,0.59 0,0.63 1.67,0.63 1.88,0.63 0.45,0 0.91,0 0.91,0.77 0,0.03 0,0.49 -0.56,0.49 h -8.65 c -0.28,0 -0.7,-0.11 -0.7,-0.77 0,-0.49 0.46,-0.49 0.94,-0.49 2.02,0 2.17,-0.31 2.51,-1.08 l 5.41,-11.93 -1.57,-6.38 c -0.45,-1.78 -0.49,-1.88 -3.21,-1.92 -0.59,0 -1.05,0 -1.05,-0.73 0,-0.34 0.25,-0.52 0.56,-0.52 0.67,0 1.47,0.11 2.17,0.11 h 4.53 c 0.73,0 1.6,-0.11 2.33,-0.11 0.22,0 0.77,0 0.77,0.77 0,0.48 -0.42,0.48 -1.18,0.48 -0.56,0 -0.7,0 -1.33,0.07 -0.66,0.07 -0.77,0.14 -0.77,0.49 0,0.21 0.42,1.89 0.67,2.83 0.27,1.11 1.01,4.15 1.08,4.29 0.14,0.52 0.14,0.59 0.49,0.94 z"
       id="path4263"
       inkscape:connector-curvature="0"
       style="fill:#000000;stroke-width:0" /></g></g><g
   id="g4341"
   transform="matrix(3.0346499,0,0,-3.0346499,-76.783924,2464.7683)"><g
     word-spacing="normal"
     letter-spacing="normal"
     font-size-adjust="none"
     font-stretch="normal"
     font-weight="normal"
     font-variant="normal"
     font-style="normal"
     stroke-miterlimit="10.433"
     xml:space="preserve"
     transform="matrix(0.2441022,0,0,-0.2441022,-42.717885,713.94992)"
     id="g4343"
     style="font-style:normal;font-variant:normal;font-weight:normal;font-stretch:normal;letter-spacing:normal;word-spacing:normal;text-anchor:start;fill:none;stroke:#000000;stroke-linecap:butt;stroke-linejoin:miter;stroke-miterlimit:10.43299961;stroke-opacity:1;stroke-dasharray:none;stroke-dashoffset:0"><path
       id="path4345"
       d="m 474.28,425.93 h 4.29 c 0.99,0 1.49,0 1.49,0.99 0,0.55 -0.5,0.55 -1.35,0.55 h -4.13 l 1.05,5.68 c 0.19,1.05 0.89,4.58 1.19,5.18 0.45,0.94 1.3,1.69 2.34,1.69 0.2,0 1.5,0 2.45,-0.89 -2.2,-0.2 -2.7,-1.95 -2.7,-2.69 0,-1.15 0.9,-1.75 1.85,-1.75 1.29,0 2.74,1.1 2.74,2.99 0,2.29 -2.29,3.44 -4.34,3.44 -1.69,0 -4.83,-0.9 -6.32,-5.83 -0.3,-1.05 -0.45,-1.54 -1.65,-7.82 h -3.43 c -0.95,0 -1.5,0 -1.5,-0.95 0,-0.59 0.45,-0.59 1.4,-0.59 h 3.29 l -3.74,-19.68 c -0.9,-4.83 -1.75,-9.37 -4.33,-9.37 -0.2,0 -1.45,0 -2.4,0.9 2.29,0.15 2.74,1.94 2.74,2.69 0,1.15 -0.89,1.74 -1.84,1.74 -1.29,0 -2.74,-1.09 -2.74,-2.98 0,-2.25 2.19,-3.44 4.24,-3.44 2.73,0 4.73,2.94 5.62,4.83 1.6,3.14 2.74,9.17 2.79,9.51 z"
       inkscape:connector-curvature="0"
       style="fill:#000000;stroke-width:0" /><path
       id="path4347"
       d="m 504.39,437.32 3.31,3.31 c 4.46,4.4 5.82,5.76 8.96,5.93 0.45,0.03 0.87,0.03 0.87,0.73 0,0.42 -0.38,0.53 -0.49,0.53 h -7.32 c -0.28,0 -0.7,-0.11 -0.7,-0.77 0,-0.04 0,-0.46 0.53,-0.49 0.31,-0.03 1.18,-0.1 1.18,-0.87 0,-0.53 -0.52,-1.08 -0.87,-1.43 -0.28,-0.24 -4.7,-4.57 -6,-5.89 l -3.52,6.83 c -0.07,0.1 -0.17,0.35 -0.17,0.49 0,0.24 0.66,0.8 1.85,0.87 0.24,0 0.73,0.03 0.73,0.77 0,0.03 -0.04,0.49 -0.59,0.49 -0.74,0 -1.61,-0.11 -2.34,-0.11 -0.73,0 -1.53,-0.03 -2.27,-0.03 -0.59,0 -1.42,0 -2.05,0.03 -0.6,0.04 -1.33,0.11 -1.89,0.11 -0.17,0 -0.73,0 -0.73,-0.77 0,-0.49 0.45,-0.49 1.01,-0.49 2.02,0 2.2,-0.35 2.55,-1.04 l 4.88,-9.63 -1.95,-1.95 c -0.67,-0.63 -2.3,-2.2 -2.93,-2.86 -4.26,-4.22 -5.69,-5.69 -8.83,-5.83 -0.48,-0.03 -0.87,-0.03 -0.87,-0.76 0,-0.14 0.11,-0.49 0.49,-0.49 1.01,0 2.2,0.14 3.24,0.14 0.6,0 1.47,0 2.06,-0.03 0.63,-0.04 1.4,-0.11 1.99,-0.11 0.18,0 0.73,0 0.73,0.73 0,0.49 -0.42,0.52 -0.62,0.52 -0.36,0.04 -1.09,0.14 -1.09,0.88 0,0.55 0.46,1.01 1.22,1.78 l 7.08,6.93 4.22,-8.26 c 0.17,-0.35 0.21,-0.42 0.21,-0.45 0,-0.21 -0.63,-0.77 -1.85,-0.88 -0.31,-0.03 -0.76,-0.03 -0.76,-0.76 0,-0.04 0.03,-0.49 0.59,-0.49 0.73,0 1.6,0.11 2.34,0.11 0.73,0 1.53,0.03 2.26,0.03 0.59,0 1.43,0 2.06,-0.03 0.59,-0.04 1.32,-0.11 1.88,-0.11 0.18,0 0.73,0 0.73,0.77 0,0.48 -0.45,0.48 -1.01,0.48 -2.02,0 -2.19,0.39 -2.51,0.98 z"
       inkscape:connector-curvature="0"
       style="fill:#000000;stroke-width:0" /></g></g></g></svg>