<?xml version="1.0" encoding="UTF-8" standalone="no"?>
<!-- Created with Inkscape (http://www.inkscape.org/) -->

<svg
   xmlns:dc="http://purl.org/dc/elements/1.1/"
   xmlns:cc="http://creativecommons.org/ns#"
   xmlns:rdf="http://www.w3.org/1999/02/22-rdf-syntax-ns#"
   xmlns:svg="http://www.w3.org/2000/svg"
   xmlns="http://www.w3.org/2000/svg"
   xmlns:sodipodi="http://sodipodi.sourceforge.net/DTD/sodipodi-0.dtd"
   xmlns:inkscape="http://www.inkscape.org/namespaces/inkscape"
   id="svg2"
   version="1.1"
   inkscape:version="0.48.1 "
   width="951.93323"
   height="170.87154"
   xml:space="preserve"
   sodipodi:docname="hierarchy.svg"><sodipodi:namedview
     pagecolor="#ffffff"
     bordercolor="#666666"
     borderopacity="1"
     objecttolerance="10"
     gridtolerance="10"
     guidetolerance="10"
     inkscape:pageopacity="0"
     inkscape:pageshadow="2"
     inkscape:window-width="1440"
     inkscape:window-height="850"
     id="namedview4"
     showgrid="false"
     inkscape:zoom="0.79814605"
     inkscape:cx="394.39117"
     inkscape:cy="-198.28416"
     inkscape:window-x="-8"
     inkscape:window-y="-8"
     inkscape:window-maximized="1"
     inkscape:current-layer="g10"
     fit-margin-top="0"
     fit-margin-left="0"
     fit-margin-right="0"
     fit-margin-bottom="0" /><metadata
     id="metadata8"><rdf:RDF><cc:Work
         rdf:about=""><dc:format>image/svg+xml</dc:format><dc:type
           rdf:resource="http://purl.org/dc/dcmitype/StillImage" /><dc:title></dc:title></cc:Work></rdf:RDF></metadata><defs
     id="defs6"><marker
       style="overflow:visible"
       id="Arrow1Lend"
       refX="0"
       refY="0"
       orient="auto"
       inkscape:stockid="Arrow1Lend"><path
         transform="matrix(-0.8,0,0,-0.8,-10,0)"
         style="fill-rule:evenodd;stroke:#000000;stroke-width:1pt;marker-start:none"
         d="M 0,0 5,-5 -12.5,0 5,5 0,0 z"
         id="path4396"
         inkscape:connector-curvature="0" /></marker><marker
       style="overflow:visible"
       id="Arrow1Mend"
       refX="0"
       refY="0"
       orient="auto"
       inkscape:stockid="Arrow1Mend"><path
         transform="matrix(-0.4,0,0,-0.4,-4,0)"
         style="fill-rule:evenodd;stroke:#000000;stroke-width:1pt;marker-start:none"
         d="M 0,0 5,-5 -12.5,0 5,5 0,0 z"
         id="path4402"
         inkscape:connector-curvature="0" /></marker><marker
       style="overflow:visible"
       id="Arrow1Mend-0"
       refX="0"
       refY="0"
       orient="auto"
       inkscape:stockid="Arrow1Mend"><path
         transform="matrix(-0.4,0,0,-0.4,-4,0)"
         style="fill-rule:evenodd;stroke:#000000;stroke-width:1pt;marker-start:none"
         d="M 0,0 5,-5 -12.5,0 5,5 0,0 z"
         id="path4402-1"
         inkscape:connector-curvature="0" /></marker><marker
       style="overflow:visible"
       id="Arrow1Mend-2"
       refX="0"
       refY="0"
       orient="auto"
       inkscape:stockid="Arrow1Mend"><path
         transform="matrix(-0.4,0,0,-0.4,-4,0)"
         style="fill-rule:evenodd;stroke:#000000;stroke-width:1pt;marker-start:none"
         d="M 0,0 5,-5 -12.5,0 5,5 0,0 z"
         id="path4402-8"
         inkscape:connector-curvature="0" /></marker><marker
       style="overflow:visible"
       id="Arrow1Mend-5"
       refX="0"
       refY="0"
       orient="auto"
       inkscape:stockid="Arrow1Mend"><path
         transform="matrix(-0.4,0,0,-0.4,-4,0)"
         style="fill-rule:evenodd;stroke:#000000;stroke-width:1pt;marker-start:none"
         d="M 0,0 5,-5 -12.5,0 5,5 0,0 z"
         id="path4402-5"
         inkscape:connector-curvature="0" /></marker><marker
       style="overflow:visible"
       id="Arrow1Mend-5-3"
       refX="0"
       refY="0"
       orient="auto"
       inkscape:stockid="Arrow1Mend"><path
         transform="matrix(-0.4,0,0,-0.4,-4,0)"
         style="fill-rule:evenodd;stroke:#000000;stroke-width:1pt;marker-start:none"
         d="M 0,0 5,-5 -12.5,0 5,5 0,0 z"
         id="path4402-5-8"
         inkscape:connector-curvature="0" /></marker></defs><g
     id="g10"
     inkscape:groupmode="layer"
     inkscape:label="hierarchy"
     transform="matrix(1.25,0,0,-1.25,18.441878,901.08198)"><g
   transform="translate(-25.600003,1.30515)"
   id="g3589"><path
     d="m 771.18229,677.06463 c 0,-22.801 -18.484,-41.286 -41.285,-41.286 -22.801,0 -41.28499,18.485 -41.28499,41.286 0,22.8 18.484,41.285 41.28499,41.285 22.80101,0 41.285,-18.485 41.285,-41.285 z"
     style="fill:#666666;fill-opacity:0.63218402;fill-rule:nonzero;stroke:none"
     id="path58"
     inkscape:connector-curvature="0" /><path
     d="m 771.18229,677.06463 c 0,-22.801 -18.484,-41.286 -41.285,-41.286 -22.801,0 -41.28499,18.485 -41.28499,41.286 0,22.8 18.484,41.285 41.28499,41.285 22.80101,0 41.285,-18.485 41.285,-41.285 z"
     style="fill:none;stroke:#666666;stroke-width:2.4216001;stroke-linecap:butt;stroke-linejoin:miter;stroke-miterlimit:4;stroke-opacity:1;stroke-dasharray:none"
     id="path60"
     inkscape:connector-curvature="0" /><path
     d="m 737.4821,685.75974 0.53961,0.536 c 1.146,1.15232 2.40028,2.44991 5.00179,2.64031 0.42682,0.0388 0.76881,0.0388 0.76881,0.72911 0,0.29958 -0.1904,0.45118 -0.4972,0.45118 l -6.96172,0 c -0.21837,0 -0.72279,0 -0.72279,-0.7255 0,-0.41599 0.3844,-0.45479 0.56758,-0.45479 0.26801,0 1.38152,-0.0776 1.38152,-0.88161 0,-0.6515 -0.8771,-1.64229 -1.0323,-1.8363 l -8.8648,-10.20391 -4.20591,11.35622 c -0.23191,0.52879 -0.23191,0.60639 -0.23191,0.64519 0,0.92041 1.87872,0.92041 2.25591,0.92041 0.53149,0 0.91589,0 0.91589,0.76159 0,0.4187 -0.45479,0.4187 -0.57119,0.4187 l -9.10122,0 c -0.2283,0 -0.72189,0 -0.72189,-0.75708 0,-0.42321 0.3808,-0.42321 0.8771,-0.42321 2.2947,0 2.4463,-0.3456 2.7919,-1.2976 l 4.6986,-12.58343 c 0.0388,-0.10918 0.1516,-0.52878 0.1516,-0.64519 0,-0.1164 -1.52229,-6.27051 -1.71269,-6.95811 -0.50442,-2.1043 -0.54322,-2.22071 -3.59591,-2.25951 -0.7255,0 -1.0323,0 -1.0323,-0.75798 0,-0.42231 0.4584,-0.42231 0.53239,-0.42231 l 9.70671,0 c 0.268,0 0.73001,0 0.73001,0.76791 0,0.41238 -0.34561,0.41238 -1.07471,0.41238 -0.0677,0 -0.79318,0 -1.4492,0.0776 -0.80039,0.0776 -1.02959,0.15521 -1.02959,0.61361 0,0.27161 0.3456,1.60349 0.53961,2.41111 l 1.3364,5.3862 c 0.1904,0.7291 0.22198,0.84551 0.5351,1.19111 l 9.4748,10.8879 z"
     style="fill:#000000;fill-opacity:1;fill-rule:nonzero;stroke:none"
     id="path84"
     inkscape:connector-curvature="0" /></g><g
   transform="translate(-17.6,4.82565)"
   id="g3556"><path
     d="m 85.412497,673.54413 c 0,-22.801 -18.484,-41.285 -41.285,-41.285 -22.801,0 -41.2809996,18.484 -41.2809996,41.285 0,22.801 18.4799996,41.285 41.2809996,41.285 22.801,0 41.285,-18.484 41.285,-41.285 z"
     style="fill:#666666;fill-opacity:0.00088884;fill-rule:nonzero;stroke:none"
     id="path50-4-4"
     inkscape:connector-curvature="0" /><path
     d="m 87.39035,673.54413 c 0,-22.801 -18.485,-41.285 -41.285,-41.285 -22.801,0 -41.2820001,18.484 -41.2820001,41.285 0,22.801 18.4810001,41.285 41.2820001,41.285 22.8,0 41.285,-18.484 41.285,-41.285 z"
     style="fill:none;stroke:#666666;stroke-width:2.4216001;stroke-linecap:butt;stroke-linejoin:miter;stroke-miterlimit:4;stroke-opacity:1;stroke-dasharray:none"
     id="path52-0-7"
     inkscape:connector-curvature="0" /><g
     id="g3205"
     transform="matrix(2.2833142,0,0,-2.2833142,-214.42689,1101.4773)"><g
       word-spacing="normal"
       letter-spacing="normal"
       font-size-adjust="none"
       font-stretch="normal"
       font-weight="normal"
       font-variant="normal"
       font-style="normal"
       stroke-miterlimit="10.433"
       xml:space="preserve"
       transform="matrix(0.37688613,0,0,-0.37688613,-65.955072,346.84416)"
       id="content"
       style="font-style:normal;font-variant:normal;font-weight:normal;font-stretch:normal;letter-spacing:normal;word-spacing:normal;text-anchor:start;fill:none;stroke:#000000;stroke-linecap:butt;stroke-linejoin:miter;stroke-miterlimit:10.43299961;stroke-opacity:1;stroke-dasharray:none;stroke-dashoffset:0"><path
         id="path3208"
         d="m 491.87,438.83 0.01,0.04 0.01,0.03 0.01,0.04 0.01,0.05 0.01,0.04 0.01,0.04 0.02,0.05 0.01,0.04 0.01,0.05 0.01,0.05 0.01,0.05 0.01,0.05 0.01,0.05 0,0.03 0,0.02 0,0.03 0,0.03 0.01,0.03 0,0.02 c 0,0.45 -0.25,0.45 -1.25,0.45 h -21.02 c -1.2,0 -1.25,-0.05 -1.55,-0.99 l -2.74,-8.97 c -0.1,-0.25 -0.14,-0.6 -0.14,-0.7 0,-0.05 0,-0.55 0.59,-0.55 0.45,0 0.55,0.35 0.65,0.5 1.89,5.88 4.48,9.17 12.25,9.17 h 8.12 l -27.84,-31.14 c 0,-0.04 -0.2,-0.74 -0.2,-0.89 0,-0.45 0.35,-0.45 1.24,-0.45 h 21.67 c 1.2,0 1.25,0.05 1.55,1 l 3.53,11 c 0.05,0.2 0.2,0.55 0.2,0.75 0,0.25 -0.2,0.55 -0.64,0.55 -0.45,0 -0.5,-0.2 -0.85,-1.25 -2.19,-6.77 -4.58,-10.35 -13.05,-10.35 h -8.52 z"
         inkscape:connector-curvature="0"
         style="fill:#000000;stroke-width:0" /></g></g></g><g
   transform="translate(-43.670596,9.35811)"
   id="g3563"><path
     d="m 256.9208,669.01167 c 0,-22.801 -18.484,-41.285 -41.285,-41.285 -22.801,0 -41.281,18.484 -41.281,41.285 0,22.801 18.48,41.285 41.281,41.285 22.801,0 41.285,-18.484 41.285,-41.285 z"
     style="fill:#666666;fill-opacity:0.00088884;fill-rule:nonzero;stroke:none"
     id="path50-4"
     inkscape:connector-curvature="0" /><path
     d="m 256.9213,669.01167 c 0,-22.801 -18.485,-41.285 -41.285,-41.285 -22.801,0 -41.282,18.484 -41.282,41.285 0,22.801 18.481,41.285 41.282,41.285 22.8,0 41.285,-18.484 41.285,-41.285 z"
     style="fill:none;stroke:#666666;stroke-width:2.4216001;stroke-linecap:butt;stroke-linejoin:miter;stroke-miterlimit:4;stroke-opacity:1;stroke-dasharray:none"
     id="path52-0"
     inkscape:connector-curvature="0" /><g
     id="g3549"><path
       style="font-style:normal;font-variant:normal;font-weight:normal;font-stretch:normal;letter-spacing:normal;word-spacing:normal;text-anchor:start;fill:#000000;stroke:#000000;stroke-width:0;stroke-linecap:butt;stroke-linejoin:miter;stroke-miterlimit:10.43299961;stroke-opacity:1;stroke-dasharray:none;stroke-dashoffset:0"
       inkscape:connector-curvature="0"
       d="m 196.00027,674.38039 -3.02083,7.16906 c -0.11563,0.28908 -0.18068,0.42639 -0.18068,0.46975 0,0.20958 0.60706,0.89613 2.11748,1.04067 0.36134,0.0361 0.72269,0.0723 0.72269,0.68655 0,0.42639 -0.43361,0.42639 -0.54202,0.42639 h -8.56385 c -0.21681,0 -0.65042,0 -0.65042,-0.71546 0,-0.39748 0.36135,-0.39748 0.83109,-0.39748 2.16084,0 2.37042,-0.36134 2.69563,-1.1563 l 4.2494,-10.04536 -7.59545,-8.16638 -0.46974,-0.39747 c -1.76336,-1.9079 -3.45445,-2.47882 -5.29008,-2.59445 -0.46975,-0.0289 -0.79496,-0.0289 -0.79496,-0.71546 0,-0.0361 0,-0.39748 0.46975,-0.39748 h 7.41478 c 0.21681,0 0.65042,0 0.65042,0.72269 0,0.36134 -0.36135,0.39025 -0.43361,0.39025 -0.31799,0.0361 -1.43815,0.11563 -1.43815,1.12016 0,0.57815 0.54201,1.14908 0.97563,1.61882 l 3.66402,3.88806 3.24487,3.52672 3.63512,-8.59998 c 0.14454,-0.39748 0.18067,-0.43362 0.18067,-0.50589 0,-0.28907 -0.68655,-0.90336 -2.08856,-1.04789 -0.39748,-0.0289 -0.72269,-0.0651 -0.72269,-0.67933 0,-0.43361 0.39748,-0.43361 0.54201,-0.43361 h 8.53495 c 0.25294,0 0.67932,0 0.67932,0.68655 0,0.42639 -0.35411,0.42639 -0.64319,0.42639 -2.41378,0.0361 -2.48604,0.14453 -3.10033,1.58268 -1.40201,3.35328 -3.81579,8.96856 -4.63966,11.1294 2.44269,2.51495 6.22957,6.80049 7.37865,7.81225 1.04067,0.86 2.40655,1.72723 4.57461,1.83563 0.46252,0.0361 0.78773,0.0361 0.78773,0.71546 0,0.0361 0,0.39748 -0.46974,0.39748 h -7.37865 c -0.2168,0 -0.67932,0 -0.67932,-0.71546 0,-0.25294 0.18067,-0.36135 0.42638,-0.39748 0.32521,-0.0361 1.44538,-0.1084 1.44538,-1.12017 0,-0.49865 -0.39748,-0.9684 -0.68656,-1.29361 z"
       id="path3326" /><g
       transform="matrix(0.85333673,0,0,0.85333673,25.986414,95.319622)"
       id="g3544"><path
         id="path3328"
         d="m 229.35955,669.69737 0.0217,0.0867 0.0217,0.0795 0.0217,0.0795 0.0217,0.0723 0.0145,0.0651 0.0217,0.0723 0.0217,0.0578 0.0289,0.0578 0.0217,0.0578 0.0289,0.0506 0.0289,0.0434 0.0361,0.0434 0.0361,0.0434 0.0434,0.0361 0.0434,0.0361 0.0506,0.0361 0.0506,0.0289 0.0578,0.0289 0.065,0.0217 0.0723,0.0217 0.0795,0.0217 0.0361,0.007 0.0434,0.0145 0.0434,0.007 0.0506,0.007 0.0434,0.007 0.0506,0.007 0.0506,0 0.0578,0.007 0.0506,0.007 0.0578,0 0.065,0.007 0.0578,0.007 0.065,0 0.065,0 0.0723,0.007 0.0723,0 0.0723,0 0.0723,0.007 0.0795,0 0.0795,0 0.0867,0 0.0867,0 c 0.54924,0 0.85277,0 0.85277,0.55647 0,0.10118 -0.0723,0.35412 -0.39748,0.35412 h -6.62705 c -0.15899,0 -0.53479,0 -0.53479,-0.55647 0,-0.35412 0.30353,-0.35412 0.80942,-0.35412 0.0217,0 0.50588,0 0.95394,-0.0506 0.53479,-0.0506 0.58538,-0.10117 0.58538,-0.35411 0,-0.0217 0,-0.17345 -0.10118,-0.55647 l -1.48873,-5.9405 h -8.441 l 1.45983,5.84655 c 0.22404,0.85277 0.28185,1.05512 2.21865,1.05512 0.42639,0 0.75883,0 0.75883,0.55647 0,0.10118 -0.0795,0.35412 -0.40471,0.35412 h -6.62705 c -0.15176,0 -0.53479,0 -0.53479,-0.55647 0,-0.35412 0.30353,-0.35412 0.80941,-0.35412 0.0289,0 0.50589,0 0.96118,-0.0506 0.52756,-0.0506 0.57815,-0.10117 0.57815,-0.35411 0,-0.0506 0,-0.17345 -0.10118,-0.55647 l -3.35327,-13.37696 c -0.20235,-0.85277 -0.25294,-1.06235 -2.21865,-1.06235 -0.42639,0 -0.7516,0 -0.7516,-0.52756 0,-0.24571 0.17345,-0.3758 0.39748,-0.3758 h 6.62705 c 0.13008,0 0.53479,0 0.53479,0.52756 0,0.3758 -0.25294,0.3758 -0.83832,0.3758 -0.39748,0 -0.49865,0 -0.95395,0.0506 -0.54924,0.0795 -0.54924,0.13008 -0.54924,0.38302 0,0.0217 0,0.17345 0.094,0.54925 l 1.66941,6.60536 h 8.44099 l -1.6405,-6.52587 c -0.20235,-0.85277 -0.25294,-1.06235 -2.21865,-1.06235 -0.42639,0 -0.75882,0 -0.75882,-0.52756 0,-0.24571 0.18067,-0.3758 0.4047,-0.3758 h 6.62705 c 0.13009,0 0.52756,0 0.52756,0.52756 0,0.3758 -0.24571,0.3758 -0.82386,0.3758 -0.40471,0 -0.50588,0 -0.96118,0.0506 -0.55647,0.0795 -0.55647,0.13008 -0.55647,0.38302 0,0.15177 0.0795,0.40471 0.10118,0.54925 z"
         inkscape:connector-curvature="0"
         style="font-style:normal;font-variant:normal;font-weight:normal;font-stretch:normal;letter-spacing:normal;word-spacing:normal;text-anchor:start;fill:#000000;stroke:#000000;stroke-width:0;stroke-linecap:butt;stroke-linejoin:miter;stroke-miterlimit:10.43299961;stroke-opacity:1;stroke-dasharray:none;stroke-dashoffset:0" /><path
         id="path3330"
         d="m 249.01094,660.22293 0.0361,0 0.0434,0 0.0361,0 0.0434,0 0.0867,0 0.0434,0.007 0.0361,0 0.0434,0.007 0.0434,0 0.0434,0.007 0.0434,0.007 0.0361,0.0145 0.0434,0.007 0.0434,0.0145 0.0361,0.007 0.0361,0.0145 0.0361,0.0217 0.0361,0.0145 0.0289,0.0217 0.0289,0.0289 0.0361,0.0217 0.0217,0.0289 0.0144,0.0145 0.0145,0.0145 0.007,0.0217 0.0145,0.0145 0.007,0.0145 0.0145,0.0217 0.007,0.0217 0.007,0.0145 0.007,0.0217 0.007,0.0217 0.007,0.0217 0,0.0217 0.007,0.0289 0.007,0.0217 0,0.0289 0,0.0217 0.007,0.0289 0,0.0289 c 0,0.62874 -0.58538,0.62874 -1.01176,0.62874 h -15.01746 c -0.4047,0 -1.00453,0 -1.00453,-0.60706 0,-0.62874 0.57815,-0.62874 1.00453,-0.62874 z"
         inkscape:connector-curvature="0"
         style="font-style:normal;font-variant:normal;font-weight:normal;font-stretch:normal;letter-spacing:normal;word-spacing:normal;text-anchor:start;fill:#000000;stroke:#000000;stroke-width:0;stroke-linecap:butt;stroke-linejoin:miter;stroke-miterlimit:10.43299961;stroke-opacity:1;stroke-dasharray:none;stroke-dashoffset:0" /><path
         id="path3332"
         d="m 261.10873,670.55737 0,0.0289 0,0.0289 0,0.0289 0,0.0289 0,0.0289 0,0.0289 0,0.0217 0,0.0289 -0.007,0.0217 0,0.0217 0,0.0289 0,0.0217 -0.007,0.0145 0,0.0217 0,0.0217 -0.007,0.0217 0,0.0145 0,0.0145 -0.0145,0.0361 -0.007,0.0289 -0.007,0.0289 -0.0145,0.0217 -0.0145,0.0217 -0.0145,0.0217 -0.0217,0.0217 -0.0145,0.0145 -0.0217,0.0145 -0.0289,0.0145 -0.0217,0.007 -0.0289,0.007 -0.0361,0.0145 -0.0361,0 -0.0145,0.007 -0.0217,0 -0.0217,0.007 -0.0145,0 -0.0217,0 -0.0217,0 -0.0289,0 -0.0217,0.007 -0.0217,0 -0.0289,0 -0.0217,0 -0.0289,0 -0.0289,0 -0.0289,0 -0.0289,0 -0.0289,0 -0.0361,0 -0.0289,0 c -1.61882,-1.58269 -3.90974,-1.6116 -4.94319,-1.6116 v -0.90336 c 0.60706,0 2.26924,0 3.64958,0.70101 v -12.84939 c 0,-0.83109 0,-1.16353 -2.51496,-1.16353 h -0.96117 v -0.90336 h 8.99746 v 0.90336 h -0.95395 c -2.52218,0 -2.52218,0.33244 -2.52218,1.16353 z"
         inkscape:connector-curvature="0"
         style="font-style:normal;font-variant:normal;font-weight:normal;font-stretch:normal;letter-spacing:normal;word-spacing:normal;text-anchor:start;fill:#000000;stroke:#000000;stroke-width:0;stroke-linecap:butt;stroke-linejoin:miter;stroke-miterlimit:10.43299961;stroke-opacity:1;stroke-dasharray:none;stroke-dashoffset:0" /></g></g></g><g
   transform="translate(34.663351,5.02914)"
   id="g3573"><path
     d="m 424.51708,670.85394 c 0,-22.801 -18.484,-41.285 -41.285,-41.285 -22.801,0 -41.281,18.484 -41.281,41.285 0,22.801 18.48,41.285 41.281,41.285 22.801,0 41.285,-18.484 41.285,-41.285 z"
     style="fill:#666666;fill-opacity:0.00088884;fill-rule:nonzero;stroke:none"
     id="path50"
     inkscape:connector-curvature="0" /><path
     d="m 419.95515,673.34064 c 0,-22.801 -18.485,-41.285 -41.285,-41.285 -22.801,0 -41.282,18.484 -41.282,41.285 0,22.801 18.481,41.285 41.282,41.285 22.8,0 41.285,-18.484 41.285,-41.285 z"
     style="fill:none;stroke:#666666;stroke-width:2.4216001;stroke-linecap:butt;stroke-linejoin:miter;stroke-miterlimit:4;stroke-opacity:1;stroke-dasharray:none"
     id="path52"
     inkscape:connector-curvature="0" /><g
     id="g3402"
     transform="matrix(1.9823571,0,0,-1.9823571,150.89754,1044.9974)"><g
       id="g3404"
       transform="matrix(0.37688613,0,0,-0.37688613,-65.955072,346.84416)"
       xml:space="preserve"
       stroke-miterlimit="10.433"
       font-style="normal"
       font-variant="normal"
       font-weight="normal"
       font-stretch="normal"
       font-size-adjust="none"
       letter-spacing="normal"
       word-spacing="normal"
       style="font-style:normal;font-variant:normal;font-weight:normal;font-stretch:normal;letter-spacing:normal;word-spacing:normal;text-anchor:start;fill:none;stroke:#000000;stroke-linecap:butt;stroke-linejoin:miter;stroke-miterlimit:10.43299961;stroke-opacity:1;stroke-dasharray:none;stroke-dashoffset:0"><path
         d="m 480.16,426.47 -4.18,9.92 c -0.16,0.4 -0.25,0.59 -0.25,0.65 0,0.29 0.84,1.24 2.93,1.44 0.5,0.05 1,0.1 1,0.95 0,0.59 -0.6,0.59 -0.75,0.59 h -11.85 c -0.3,0 -0.9,0 -0.9,-0.99 0,-0.55 0.5,-0.55 1.15,-0.55 2.99,0 3.28,-0.5 3.73,-1.6 l 5.88,-13.9 -10.51,-11.3 -0.65,-0.55 c -2.44,-2.64 -4.78,-3.43 -7.32,-3.59 -0.65,-0.04 -1.1,-0.04 -1.1,-0.99 0,-0.05 0,-0.55 0.65,-0.55 h 10.26 c 0.3,0 0.9,0 0.9,1 0,0.5 -0.5,0.54 -0.6,0.54 -0.44,0.05 -1.99,0.16 -1.99,1.55 0,0.8 0.75,1.59 1.35,2.24 l 5.07,5.38 4.49,4.88 5.03,-11.9 c 0.2,-0.55 0.25,-0.6 0.25,-0.7 0,-0.4 -0.95,-1.25 -2.89,-1.45 -0.55,-0.04 -1,-0.09 -1,-0.94 0,-0.6 0.55,-0.6 0.75,-0.6 h 11.81 c 0.35,0 0.94,0 0.94,0.95 0,0.59 -0.49,0.59 -0.89,0.59 -3.34,0.05 -3.44,0.2 -4.29,2.19 -1.94,4.64 -5.28,12.41 -6.42,15.4 3.38,3.48 8.62,9.41 10.21,10.81 1.44,1.19 3.33,2.39 6.33,2.54 0.64,0.05 1.09,0.05 1.09,0.99 0,0.05 0,0.55 -0.65,0.55 h -10.21 c -0.3,0 -0.94,0 -0.94,-0.99 0,-0.35 0.25,-0.5 0.59,-0.55 0.45,-0.05 2,-0.15 2,-1.55 0,-0.69 -0.55,-1.34 -0.95,-1.79 z"
         id="path3406"
         inkscape:connector-curvature="0"
         style="fill:#000000;stroke-width:0" /><path
         d="m 514.61,405.35 h -1.19 c -0.1,-0.77 -0.45,-2.83 -0.9,-3.18 -0.28,-0.21 -2.97,-0.21 -3.45,-0.21 h -6.42 c 3.66,3.25 4.88,4.22 6.97,5.86 2.58,2.06 4.99,4.22 4.99,7.54 0,4.21 -3.7,6.79 -8.16,6.79 -4.32,0 -7.25,-3.03 -7.25,-6.24 0,-1.78 1.5,-1.95 1.84,-1.95 0.84,0 1.85,0.59 1.85,1.85 0,0.62 -0.24,1.85 -2.05,1.85 1.08,2.47 3.45,3.24 5.09,3.24 3.48,0 5.3,-2.72 5.3,-5.54 0,-3.04 -2.16,-5.45 -3.28,-6.7 l -8.4,-8.3 c -0.35,-0.31 -0.35,-0.38 -0.35,-1.36 h 14.36 z"
         id="path3408"
         inkscape:connector-curvature="0"
         style="fill:#000000;stroke-width:0" /></g></g></g><g
   transform="translate(12.605746,0)"
   id="g3581"><path
     d="m 587.53319,678.37278 c 0,-22.8 -18.484,-41.285 -41.285,-41.285 -22.801,0 -41.285,18.485 -41.285,41.285 0,22.801 18.484,41.282 41.285,41.282 22.801,0 41.285,-18.481 41.285,-41.282 z"
     style="fill:#666666;fill-opacity:0.00088884;fill-rule:nonzero;stroke:none"
     id="path54"
     inkscape:connector-curvature="0" /><path
     d="m 587.53319,678.37278 c 0,-22.8 -18.484,-41.285 -41.285,-41.285 -22.801,0 -41.285,18.485 -41.285,41.285 0,22.801 18.484,41.282 41.285,41.282 22.801,0 41.285,-18.481 41.285,-41.282 z"
     style="fill:none;stroke:#666666;stroke-width:2.4216001;stroke-linecap:butt;stroke-linejoin:miter;stroke-miterlimit:4;stroke-opacity:1;stroke-dasharray:none"
     id="path56"
     inkscape:connector-curvature="0" /><g
     id="g3486"
     transform="matrix(1.9175232,0,0,-1.9175232,321.91502,1040.2782)"><g
       word-spacing="normal"
       letter-spacing="normal"
       font-size-adjust="none"
       font-stretch="normal"
       font-weight="normal"
       font-variant="normal"
       font-style="normal"
       stroke-miterlimit="10.433"
       xml:space="preserve"
       transform="matrix(0.37688613,0,0,-0.37688613,-65.955072,346.84416)"
       id="g3488"
       style="font-style:normal;font-variant:normal;font-weight:normal;font-stretch:normal;letter-spacing:normal;word-spacing:normal;text-anchor:start;fill:none;stroke:#000000;stroke-linecap:butt;stroke-linejoin:miter;stroke-miterlimit:10.43299961;stroke-opacity:1;stroke-dasharray:none;stroke-dashoffset:0"><path
         id="path3490"
         d="m 480.16,426.47 -4.18,9.92 c -0.16,0.4 -0.25,0.59 -0.25,0.65 0,0.29 0.84,1.24 2.93,1.44 0.5,0.05 1,0.1 1,0.95 0,0.59 -0.6,0.59 -0.75,0.59 h -11.85 c -0.3,0 -0.9,0 -0.9,-0.99 0,-0.55 0.5,-0.55 1.15,-0.55 2.99,0 3.28,-0.5 3.73,-1.6 l 5.88,-13.9 -10.51,-11.3 -0.65,-0.55 c -2.44,-2.64 -4.78,-3.43 -7.32,-3.59 -0.65,-0.04 -1.1,-0.04 -1.1,-0.99 0,-0.05 0,-0.55 0.65,-0.55 h 10.26 c 0.3,0 0.9,0 0.9,1 0,0.5 -0.5,0.54 -0.6,0.54 -0.44,0.05 -1.99,0.16 -1.99,1.55 0,0.8 0.75,1.59 1.35,2.24 l 5.07,5.38 4.49,4.88 5.03,-11.9 c 0.2,-0.55 0.25,-0.6 0.25,-0.7 0,-0.4 -0.95,-1.25 -2.89,-1.45 -0.55,-0.04 -1,-0.09 -1,-0.94 0,-0.6 0.55,-0.6 0.75,-0.6 h 11.81 c 0.35,0 0.94,0 0.94,0.95 0,0.59 -0.49,0.59 -0.89,0.59 -3.34,0.05 -3.44,0.2 -4.29,2.19 -1.94,4.64 -5.28,12.41 -6.42,15.4 3.38,3.48 8.62,9.41 10.21,10.81 1.44,1.19 3.33,2.39 6.33,2.54 0.64,0.05 1.09,0.05 1.09,0.99 0,0.05 0,0.55 -0.65,0.55 h -10.21 c -0.3,0 -0.94,0 -0.94,-0.99 0,-0.35 0.25,-0.5 0.59,-0.55 0.45,-0.05 2,-0.15 2,-1.55 0,-0.69 -0.55,-1.34 -0.95,-1.79 z"
         inkscape:connector-curvature="0"
         style="fill:#000000;stroke-width:0" /><path
         id="path3492"
         d="m 508.68,421.18 0,0.04 0,0.04 0,0.04 0,0.04 0,0.04 0,0.04 0,0.03 0,0.04 -0.01,0.03 0,0.03 0,0.04 0,0.03 -0.01,0.02 0,0.03 0,0.03 -0.01,0.03 0,0.02 0,0.02 -0.02,0.05 -0.01,0.04 -0.01,0.04 -0.02,0.03 -0.02,0.03 -0.02,0.03 -0.03,0.03 -0.02,0.02 -0.03,0.02 -0.04,0.02 -0.03,0.01 -0.04,0.01 -0.05,0.02 -0.05,0 -0.02,0.01 -0.03,0 -0.03,0.01 -0.02,0 -0.03,0 -0.03,0 -0.04,0 -0.03,0.01 -0.03,0 -0.04,0 -0.03,0 -0.04,0 -0.04,0 -0.04,0 -0.04,0 -0.04,0 -0.05,0 -0.04,0 c -2.24,-2.19 -5.41,-2.23 -6.84,-2.23 v -1.25 c 0.84,0 3.14,0 5.06,0.97 v -17.78 c 0,-1.15 0,-1.61 -3.49,-1.61 h -1.33 V 399 h 12.45 v 1.25 h -1.32 c -3.49,0 -3.49,0.46 -3.49,1.61 z"
         inkscape:connector-curvature="0"
         style="fill:#000000;stroke-width:0" /></g></g></g><path
   inkscape:connection-end-point="d4"
   inkscape:connection-end="#g3563"
   inkscape:connection-start-point="d4"
   inkscape:connection-start="#g3556"
   inkscape:connector-curvature="0"
   inkscape:connector-type="polyline"
   id="path3594"
   d="m 69.79035,678.36978 60.89335,0"
   style="fill:none;stroke:#000000;stroke-width:2.24000001;stroke-linecap:butt;stroke-linejoin:miter;stroke-miterlimit:4;stroke-opacity:1;stroke-dasharray:none;marker-end:url(#Arrow1Mend)" /><path
   transform="matrix(0.8,0,0,-0.8,0,369.9671)"
   inkscape:connection-end-point="d4"
   inkscape:connection-end="#g3581"
   inkscape:connection-start-point="d4"
   inkscape:connection-start="#g3573"
   inkscape:connector-curvature="0"
   inkscape:connector-type="polyline"
   id="path3600"
   d="m 573.91334,-384.95108 73.04834,-0.32473"
   style="fill:none;stroke:#000000;stroke-width:2.79999995;stroke-linecap:butt;stroke-linejoin:miter;stroke-miterlimit:4;stroke-opacity:1;stroke-dasharray:none;marker-end:url(#Arrow1Mend)" /><path
   transform="matrix(0.8,0,0,-0.8,0,369.9671)"
   inkscape:connection-end-point="d4"
   inkscape:connection-end="#g3589"
   inkscape:connection-start-point="d4"
   inkscape:connection-start="#g3581"
   inkscape:connector-curvature="0"
   inkscape:connector-type="polyline"
   id="path3602"
   d="m 750.17367,-385.50452 78.5917,0.001"
   style="fill:none;stroke:#000000;stroke-width:2.79999995;stroke-linecap:butt;stroke-linejoin:miter;stroke-miterlimit:4;stroke-opacity:1;stroke-dasharray:none;marker-end:url(#Arrow1Mend)" /><path
   transform="matrix(0.8,0,0,-0.8,0,369.9671)"
   inkscape:connection-start-point="d4"
   inkscape:connection-start="#g3563"
   inkscape:connector-curvature="0"
   inkscape:connector-type="polyline"
   id="path5282"
   d="m 266.56322,-385.63477 47.91556,-0.12202"
   style="fill:none;stroke:#000000;stroke-width:2.79999995;stroke-linecap:butt;stroke-linejoin:miter;stroke-miterlimit:4;stroke-opacity:1;stroke-dasharray:none;marker-end:url(#Arrow1Mend-5)" /><path
   inkscape:connector-curvature="0"
   inkscape:connector-type="polyline"
   id="path5282-9"
   d="m 328.80212,677.50683 38.33244,0.0976"
   style="fill:none;stroke:#000000;stroke-width:2.24000001;stroke-linecap:butt;stroke-linejoin:miter;stroke-miterlimit:4;stroke-opacity:1;stroke-dasharray:none;marker-end:url(#Arrow1Mend-5)" /><text
   transform="scale(1,-1)"
   sodipodi:linespacing="125%"
   id="text5688"
   y="-675.56555"
   x="277.64343"
   style="font-size:32px;font-style:normal;font-weight:normal;line-height:125%;letter-spacing:0px;word-spacing:0px;fill:#000000;fill-opacity:1;stroke:none;font-family:Sans"
   xml:space="preserve"><tspan
     y="-675.56555"
     x="277.64343"
     id="tspan5690"
     sodipodi:role="line">...</tspan></text>












<g
   id="g5798"
   transform="matrix(1.7319403,0,0,-1.7319403,-140.49876,926.53207)"><g
     word-spacing="normal"
     letter-spacing="normal"
     font-size-adjust="none"
     font-stretch="normal"
     font-weight="normal"
     font-variant="normal"
     font-style="normal"
     stroke-miterlimit="10.433"
     xml:space="preserve"
     transform="matrix(0.37688613,0,0,-0.37688613,-65.955072,346.84416)"
     id="g5800"
     style="font-style:normal;font-variant:normal;font-weight:normal;font-stretch:normal;letter-spacing:normal;word-spacing:normal;text-anchor:start;fill:none;stroke:#000000;stroke-linecap:butt;stroke-linejoin:miter;stroke-miterlimit:10.43299961;stroke-opacity:1;stroke-dasharray:none;stroke-dashoffset:0"><path
       id="path5802"
       d="m 464.82,440.57 -7.18,-0.55 v -1.54 c 3.49,0 3.89,-0.35 3.89,-2.79 v -25.9 c 0,-2.25 -0.55,-2.25 -3.89,-2.25 V 406 h 11.06 v 1.54 c -3.34,0 -3.88,0 -3.88,2.25 z"
       inkscape:connector-curvature="0"
       style="fill:#000000;stroke-width:0" /><path
       id="path5804"
       d="m 485.59,409.79 0.02,-0.19 0.03,-0.19 0.03,-0.19 0.04,-0.18 0.05,-0.19 0.06,-0.18 0.06,-0.18 0.07,-0.18 0.07,-0.18 0.08,-0.18 0.09,-0.17 0.1,-0.16 0.1,-0.17 0.1,-0.15 0.12,-0.16 0.12,-0.14 0.12,-0.15 0.13,-0.13 0.14,-0.13 0.15,-0.12 0.15,-0.12 0.15,-0.1 0.17,-0.1 0.17,-0.09 0.17,-0.08 0.18,-0.07 0.19,-0.07 0.19,-0.05 0.2,-0.04 0.21,-0.03 0.21,-0.01 0.21,-0.01 c 1.05,0 4.09,0.7 4.09,4.73 v 2.79 h -1.25 v -2.79 c 0,-2.89 -1.24,-3.18 -1.79,-3.18 -1.64,0 -1.84,2.24 -1.84,2.48 v 9.97 c 0,2.09 0,4.03 -1.8,5.88 -1.94,1.94 -4.43,2.74 -6.82,2.74 -4.09,0 -7.52,-2.34 -7.52,-5.63 0,-1.5 0.99,-2.34 2.29,-2.34 1.39,0 2.29,0.99 2.29,2.29 0,0.59 -0.25,2.24 -2.54,2.29 1.35,1.74 3.78,2.29 5.38,2.29 2.44,0 5.28,-1.94 5.28,-6.38 v -1.84 -1.04 -4.99 c 0,-4.73 -3.59,-6.42 -5.83,-6.42 -2.44,0 -4.48,1.74 -4.48,4.23 0,2.74 2.09,6.88 10.31,7.18 h 0 V 419 c -2.54,-0.15 -6.03,-0.3 -9.17,-1.79 -3.73,-1.69 -4.98,-4.28 -4.98,-6.48 0,-4.03 4.84,-5.28 7.97,-5.28 3.29,0 5.58,2 6.53,4.34 z"
       inkscape:connector-curvature="0"
       style="fill:#000000;stroke-width:0" /><path
       id="path5806"
       d="m 513.67,422.74 0.06,0.14 0.07,0.14 0.06,0.14 0.07,0.13 0.07,0.13 0.07,0.12 0.07,0.12 0.07,0.12 0.15,0.21 0.15,0.21 0.16,0.19 0.16,0.17 0.16,0.16 0.17,0.15 0.17,0.13 0.17,0.13 0.17,0.11 0.17,0.1 0.17,0.09 0.17,0.08 0.16,0.07 0.17,0.06 0.16,0.06 0.16,0.04 0.16,0.04 0.15,0.04 0.15,0.03 0.14,0.02 0.13,0.02 0.13,0.01 0.13,0.01 0.11,0.01 0.11,0 0.1,0 0.09,0.01 0.07,0 v 1.54 h -8.07 v -1.54 c 1.55,-0.05 2.35,-0.9 2.35,-2.14 0,-0.5 -0.05,-0.61 -0.3,-1.2 l -5.03,-12.26 -5.53,13.4 c -0.2,0.5 -0.3,0.7 -0.3,0.9 0,1.3 1.84,1.3 2.79,1.3 v 1.54 h -10.26 v -1.54 c 2.39,0 3.34,0 4.03,-1.75 L 505.45,406 c -0.25,-0.65 -0.94,-2.29 -1.24,-2.94 -1.1,-2.74 -2.49,-6.18 -5.68,-6.18 -0.25,0 -1.4,0 -2.34,0.9 1.54,0.2 1.94,1.29 1.94,2.09 0,1.3 -0.95,2.09 -2.09,2.09 -1,0 -2.09,-0.64 -2.09,-2.14 0,-2.24 2.09,-4.03 4.58,-4.03 3.14,0 5.18,2.84 6.38,5.68 z"
       inkscape:connector-curvature="0"
       style="fill:#000000;stroke-width:0" /><path
       id="path5808"
       d="m 523.53,417.51 0.05,1.04 c 0.3,7.43 4.48,8.67 6.18,8.67 5.13,0 5.63,-6.72 5.63,-8.67 h -11.81 l -0.05,-1.04 h 13.9 c 1.09,0 1.24,0 1.24,1.04 0,4.93 -2.69,9.77 -8.91,9.77 -5.78,0 -10.36,-5.14 -10.36,-11.36 0,-6.67 5.23,-11.51 10.95,-11.51 6.08,0 8.32,5.53 8.32,6.48 0,0.5 -0.4,0.6 -0.65,0.6 -0.44,0 -0.54,-0.3 -0.64,-0.7 -1.75,-5.13 -6.23,-5.13 -6.73,-5.13 -2.49,0 -4.48,1.49 -5.63,3.34 -1.49,2.39 -1.49,5.67 -1.49,7.47 z"
       inkscape:connector-curvature="0"
       style="fill:#000000;stroke-width:0" /><path
       id="path5810"
       d="m 548.32,422.54 v 5.48 l -6.92,-0.55 v -1.54 c 3.48,0 3.88,-0.35 3.88,-2.79 v -13.35 c 0,-2.25 -0.55,-2.25 -3.88,-2.25 V 406 h 12 v 1.54 h -1.05 c -3.68,0 -3.78,0.55 -3.78,2.35 v 7.66 c 0,4.94 2.09,9.37 5.88,9.37 0.34,0 0.45,0 0.54,-0.05 -0.15,-0.05 -1.14,-0.65 -1.14,-1.94 0,-1.39 1.05,-2.14 2.14,-2.14 0.9,0 2.14,0.59 2.14,2.19 0,1.59 -1.54,3.04 -3.68,3.04 -3.64,0 -5.43,-3.34 -6.13,-5.48 z"
       inkscape:connector-curvature="0"
       style="fill:#000000;stroke-width:0" /><path
       id="path5812"
       d="m 614.01,436.19 0.04,0.16 0.04,0.16 0.04,0.15 0.04,0.14 0.04,0.14 0.04,0.12 0.04,0.13 0.05,0.11 0.05,0.11 0.05,0.1 0.06,0.1 0.07,0.09 0.07,0.08 0.08,0.08 0.09,0.08 0.09,0.06 0.11,0.07 0.11,0.05 0.13,0.06 0.14,0.05 0.15,0.04 0.16,0.04 0.09,0.01 0.09,0.02 0.09,0.02 0.1,0.01 0.1,0.01 0.1,0.02 0.11,0.01 0.11,0.01 0.12,0.01 0.12,0.01 0.13,0.01 0.13,0 0.13,0.01 0.14,0 0.14,0.01 0.15,0 0.15,0 0.16,0.01 0.16,0 0.17,0 c 1.3,0 1.7,0 1.7,0.99 0,0.55 -0.55,0.55 -0.7,0.55 h -12.8 c -0.4,0 -0.95,0 -0.95,-0.99 0,-0.55 0.45,-0.55 1.4,-0.55 0.09,0 1.04,0 1.89,-0.1 0.9,-0.1 1.34,-0.15 1.34,-0.8 0,-0.2 -0.05,-0.3 -0.2,-0.94 l -2.99,-12.16 h -15.19 l 2.94,11.71 c 0.45,1.79 0.6,2.29 4.18,2.29 1.3,0 1.7,0 1.7,0.99 0,0.55 -0.55,0.55 -0.7,0.55 h -12.8 c -0.4,0 -0.95,0 -0.95,-0.99 0,-0.55 0.45,-0.55 1.4,-0.55 0.1,0 1.04,0 1.89,-0.1 0.9,-0.1 1.35,-0.15 1.35,-0.8 0,-0.2 -0.05,-0.35 -0.2,-0.94 l -6.68,-26.75 c -0.5,-1.95 -0.6,-2.35 -4.53,-2.35 -0.9,0 -1.35,0 -1.35,-0.99 0,-0.55 0.6,-0.55 0.7,-0.55 1.39,0 4.93,0.15 6.33,0.15 1.04,0 2.14,-0.05 3.19,-0.05 1.09,0 2.19,-0.1 3.23,-0.1 0.4,0 1,0 1,1 0,0.54 -0.45,0.54 -1.4,0.54 -1.84,0 -3.23,0 -3.23,0.9 0,0.3 0.09,0.55 0.15,0.85 l 3.38,13.65 h 15.19 c -2.08,-8.27 -3.23,-13.01 -3.43,-13.75 -0.5,-1.6 -1.45,-1.65 -4.53,-1.65 -0.75,0 -1.2,0 -1.2,-0.99 0,-0.55 0.6,-0.55 0.7,-0.55 1.39,0 4.93,0.15 6.32,0.15 1.05,0 2.14,-0.05 3.19,-0.05 1.1,0 2.19,-0.1 3.24,-0.1 0.4,0 1,0 1,1 0,0.54 -0.45,0.54 -1.4,0.54 -1.84,0 -3.24,0 -3.24,0.9 0,0.3 0.1,0.55 0.15,0.85 z"
       inkscape:connector-curvature="0"
       style="fill:#000000;stroke-width:0" /></g></g><g
   id="g5954"
   transform="matrix(1.9101104,0,0,-1.9101104,227.72537,964.16138)"><g
     id="g5956"
     transform="matrix(0.37688613,0,0,-0.37688613,-65.955072,346.84416)"
     xml:space="preserve"
     stroke-miterlimit="10.433"
     font-style="normal"
     font-variant="normal"
     font-weight="normal"
     font-stretch="normal"
     font-size-adjust="none"
     letter-spacing="normal"
     word-spacing="normal"
     style="font-style:normal;font-variant:normal;font-weight:normal;font-stretch:normal;letter-spacing:normal;word-spacing:normal;text-anchor:start;fill:none;stroke:#000000;stroke-linecap:butt;stroke-linejoin:miter;stroke-miterlimit:10.43299961;stroke-opacity:1;stroke-dasharray:none;stroke-dashoffset:0"><path
       d="m 464.82,440.57 -7.18,-0.55 v -1.54 c 3.49,0 3.89,-0.35 3.89,-2.79 v -25.9 c 0,-2.25 -0.55,-2.25 -3.89,-2.25 V 406 h 11.06 v 1.54 c -3.34,0 -3.88,0 -3.88,2.25 z"
       id="path5958"
       inkscape:connector-curvature="0"
       style="fill:#000000;stroke-width:0" /><path
       d="m 485.59,409.79 0.02,-0.19 0.03,-0.19 0.03,-0.19 0.04,-0.18 0.05,-0.19 0.06,-0.18 0.06,-0.18 0.07,-0.18 0.07,-0.18 0.08,-0.18 0.09,-0.17 0.1,-0.16 0.1,-0.17 0.1,-0.15 0.12,-0.16 0.12,-0.14 0.12,-0.15 0.13,-0.13 0.14,-0.13 0.15,-0.12 0.15,-0.12 0.15,-0.1 0.17,-0.1 0.17,-0.09 0.17,-0.08 0.18,-0.07 0.19,-0.07 0.19,-0.05 0.2,-0.04 0.21,-0.03 0.21,-0.01 0.21,-0.01 c 1.05,0 4.09,0.7 4.09,4.73 v 2.79 h -1.25 v -2.79 c 0,-2.89 -1.24,-3.18 -1.79,-3.18 -1.64,0 -1.84,2.24 -1.84,2.48 v 9.97 c 0,2.09 0,4.03 -1.8,5.88 -1.94,1.94 -4.43,2.74 -6.82,2.74 -4.09,0 -7.52,-2.34 -7.52,-5.63 0,-1.5 0.99,-2.34 2.29,-2.34 1.39,0 2.29,0.99 2.29,2.29 0,0.59 -0.25,2.24 -2.54,2.29 1.35,1.74 3.78,2.29 5.38,2.29 2.44,0 5.28,-1.94 5.28,-6.38 v -1.84 -1.04 -4.99 c 0,-4.73 -3.59,-6.42 -5.83,-6.42 -2.44,0 -4.48,1.74 -4.48,4.23 0,2.74 2.09,6.88 10.31,7.18 h 0 V 419 c -2.54,-0.15 -6.03,-0.3 -9.17,-1.79 -3.73,-1.69 -4.98,-4.28 -4.98,-6.48 0,-4.03 4.84,-5.28 7.97,-5.28 3.29,0 5.58,2 6.53,4.34 z"
       id="path5960"
       inkscape:connector-curvature="0"
       style="fill:#000000;stroke-width:0" /><path
       d="m 513.67,422.74 0.06,0.14 0.07,0.14 0.06,0.14 0.07,0.13 0.07,0.13 0.07,0.12 0.07,0.12 0.07,0.12 0.15,0.21 0.15,0.21 0.16,0.19 0.16,0.17 0.16,0.16 0.17,0.15 0.17,0.13 0.17,0.13 0.17,0.11 0.17,0.1 0.17,0.09 0.17,0.08 0.16,0.07 0.17,0.06 0.16,0.06 0.16,0.04 0.16,0.04 0.15,0.04 0.15,0.03 0.14,0.02 0.13,0.02 0.13,0.01 0.13,0.01 0.11,0.01 0.11,0 0.1,0 0.09,0.01 0.07,0 v 1.54 h -8.07 v -1.54 c 1.55,-0.05 2.35,-0.9 2.35,-2.14 0,-0.5 -0.05,-0.61 -0.3,-1.2 l -5.03,-12.26 -5.53,13.4 c -0.2,0.5 -0.3,0.7 -0.3,0.9 0,1.3 1.84,1.3 2.79,1.3 v 1.54 h -10.26 v -1.54 c 2.39,0 3.34,0 4.03,-1.75 L 505.45,406 c -0.25,-0.65 -0.94,-2.29 -1.24,-2.94 -1.1,-2.74 -2.49,-6.18 -5.68,-6.18 -0.25,0 -1.4,0 -2.34,0.9 1.54,0.2 1.94,1.29 1.94,2.09 0,1.3 -0.95,2.09 -2.09,2.09 -1,0 -2.09,-0.64 -2.09,-2.14 0,-2.24 2.09,-4.03 4.58,-4.03 3.14,0 5.18,2.84 6.38,5.68 z"
       id="path5962"
       inkscape:connector-curvature="0"
       style="fill:#000000;stroke-width:0" /><path
       d="m 523.53,417.51 0.05,1.04 c 0.3,7.43 4.48,8.67 6.18,8.67 5.13,0 5.63,-6.72 5.63,-8.67 h -11.81 l -0.05,-1.04 h 13.9 c 1.09,0 1.24,0 1.24,1.04 0,4.93 -2.69,9.77 -8.91,9.77 -5.78,0 -10.36,-5.14 -10.36,-11.36 0,-6.67 5.23,-11.51 10.95,-11.51 6.08,0 8.32,5.53 8.32,6.48 0,0.5 -0.4,0.6 -0.65,0.6 -0.44,0 -0.54,-0.3 -0.64,-0.7 -1.75,-5.13 -6.23,-5.13 -6.73,-5.13 -2.49,0 -4.48,1.49 -5.63,3.34 -1.49,2.39 -1.49,5.67 -1.49,7.47 z"
       id="path5964"
       inkscape:connector-curvature="0"
       style="fill:#000000;stroke-width:0" /><path
       d="m 548.32,422.54 v 5.48 l -6.92,-0.55 v -1.54 c 3.48,0 3.88,-0.35 3.88,-2.79 v -13.35 c 0,-2.25 -0.55,-2.25 -3.88,-2.25 V 406 h 12 v 1.54 h -1.05 c -3.68,0 -3.78,0.55 -3.78,2.35 v 7.66 c 0,4.94 2.09,9.37 5.88,9.37 0.34,0 0.45,0 0.54,-0.05 -0.15,-0.05 -1.14,-0.65 -1.14,-1.94 0,-1.39 1.05,-2.14 2.14,-2.14 0.9,0 2.14,0.59 2.14,2.19 0,1.59 -1.54,3.04 -3.68,3.04 -3.64,0 -5.43,-3.34 -6.13,-5.48 z"
       id="path5966"
       inkscape:connector-curvature="0"
       style="fill:#000000;stroke-width:0" /><path
       d="m 582.33,409.84 5.27,5.12 c 7.78,6.88 10.77,9.57 10.77,14.55 0,5.68 -4.49,9.67 -10.57,9.67 -5.62,0 -9.31,-4.59 -9.31,-9.02 0,-2.79 2.49,-2.79 2.64,-2.79 0.85,0 2.59,0.6 2.59,2.64 0,1.29 -0.9,2.59 -2.64,2.59 -0.4,0 -0.5,0 -0.65,-0.05 1.15,3.24 3.84,5.08 6.73,5.08 4.53,0 6.67,-4.03 6.67,-8.12 0,-3.98 -2.49,-7.92 -5.23,-11.01 l -9.56,-10.66 c -0.55,-0.54 -0.55,-0.64 -0.55,-1.84 h 18.48 l 1.4,8.67 h -1.25 c -0.25,-1.5 -0.6,-3.69 -1.1,-4.44 -0.34,-0.39 -3.63,-0.39 -4.73,-0.39 z"
       id="path5968"
       inkscape:connector-curvature="0"
       style="fill:#000000;stroke-width:0" /></g></g><g
   id="g6126"
   transform="matrix(1.8295331,0,0,-1.8295331,386.23987,948.18608)"><g
     word-spacing="normal"
     letter-spacing="normal"
     font-size-adjust="none"
     font-stretch="normal"
     font-weight="normal"
     font-variant="normal"
     font-style="normal"
     stroke-miterlimit="10.433"
     xml:space="preserve"
     transform="matrix(0.37688613,0,0,-0.37688613,-65.955072,346.84416)"
     id="g6128"
     style="font-style:normal;font-variant:normal;font-weight:normal;font-stretch:normal;letter-spacing:normal;word-spacing:normal;text-anchor:start;fill:none;stroke:#000000;stroke-linecap:butt;stroke-linejoin:miter;stroke-miterlimit:10.43299961;stroke-opacity:1;stroke-dasharray:none;stroke-dashoffset:0"><path
       id="path6130"
       d="m 464.82,440.57 -7.18,-0.55 v -1.54 c 3.49,0 3.89,-0.35 3.89,-2.79 v -25.9 c 0,-2.25 -0.55,-2.25 -3.89,-2.25 V 406 h 11.06 v 1.54 c -3.34,0 -3.88,0 -3.88,2.25 z"
       inkscape:connector-curvature="0"
       style="fill:#000000;stroke-width:0" /><path
       id="path6132"
       d="m 485.59,409.79 0.02,-0.19 0.03,-0.19 0.03,-0.19 0.04,-0.18 0.05,-0.19 0.06,-0.18 0.06,-0.18 0.07,-0.18 0.07,-0.18 0.08,-0.18 0.09,-0.17 0.1,-0.16 0.1,-0.17 0.1,-0.15 0.12,-0.16 0.12,-0.14 0.12,-0.15 0.13,-0.13 0.14,-0.13 0.15,-0.12 0.15,-0.12 0.15,-0.1 0.17,-0.1 0.17,-0.09 0.17,-0.08 0.18,-0.07 0.19,-0.07 0.19,-0.05 0.2,-0.04 0.21,-0.03 0.21,-0.01 0.21,-0.01 c 1.05,0 4.09,0.7 4.09,4.73 v 2.79 h -1.25 v -2.79 c 0,-2.89 -1.24,-3.18 -1.79,-3.18 -1.64,0 -1.84,2.24 -1.84,2.48 v 9.97 c 0,2.09 0,4.03 -1.8,5.88 -1.94,1.94 -4.43,2.74 -6.82,2.74 -4.09,0 -7.52,-2.34 -7.52,-5.63 0,-1.5 0.99,-2.34 2.29,-2.34 1.39,0 2.29,0.99 2.29,2.29 0,0.59 -0.25,2.24 -2.54,2.29 1.35,1.74 3.78,2.29 5.38,2.29 2.44,0 5.28,-1.94 5.28,-6.38 v -1.84 -1.04 -4.99 c 0,-4.73 -3.59,-6.42 -5.83,-6.42 -2.44,0 -4.48,1.74 -4.48,4.23 0,2.74 2.09,6.88 10.31,7.18 h 0 V 419 c -2.54,-0.15 -6.03,-0.3 -9.17,-1.79 -3.73,-1.69 -4.98,-4.28 -4.98,-6.48 0,-4.03 4.84,-5.28 7.97,-5.28 3.29,0 5.58,2 6.53,4.34 z"
       inkscape:connector-curvature="0"
       style="fill:#000000;stroke-width:0" /><path
       id="path6134"
       d="m 513.67,422.74 0.06,0.14 0.07,0.14 0.06,0.14 0.07,0.13 0.07,0.13 0.07,0.12 0.07,0.12 0.07,0.12 0.15,0.21 0.15,0.21 0.16,0.19 0.16,0.17 0.16,0.16 0.17,0.15 0.17,0.13 0.17,0.13 0.17,0.11 0.17,0.1 0.17,0.09 0.17,0.08 0.16,0.07 0.17,0.06 0.16,0.06 0.16,0.04 0.16,0.04 0.15,0.04 0.15,0.03 0.14,0.02 0.13,0.02 0.13,0.01 0.13,0.01 0.11,0.01 0.11,0 0.1,0 0.09,0.01 0.07,0 v 1.54 h -8.07 v -1.54 c 1.55,-0.05 2.35,-0.9 2.35,-2.14 0,-0.5 -0.05,-0.61 -0.3,-1.2 l -5.03,-12.26 -5.53,13.4 c -0.2,0.5 -0.3,0.7 -0.3,0.9 0,1.3 1.84,1.3 2.79,1.3 v 1.54 h -10.26 v -1.54 c 2.39,0 3.34,0 4.03,-1.75 L 505.45,406 c -0.25,-0.65 -0.94,-2.29 -1.24,-2.94 -1.1,-2.74 -2.49,-6.18 -5.68,-6.18 -0.25,0 -1.4,0 -2.34,0.9 1.54,0.2 1.94,1.29 1.94,2.09 0,1.3 -0.95,2.09 -2.09,2.09 -1,0 -2.09,-0.64 -2.09,-2.14 0,-2.24 2.09,-4.03 4.58,-4.03 3.14,0 5.18,2.84 6.38,5.68 z"
       inkscape:connector-curvature="0"
       style="fill:#000000;stroke-width:0" /><path
       id="path6136"
       d="m 523.53,417.51 0.05,1.04 c 0.3,7.43 4.48,8.67 6.18,8.67 5.13,0 5.63,-6.72 5.63,-8.67 h -11.81 l -0.05,-1.04 h 13.9 c 1.09,0 1.24,0 1.24,1.04 0,4.93 -2.69,9.77 -8.91,9.77 -5.78,0 -10.36,-5.14 -10.36,-11.36 0,-6.67 5.23,-11.51 10.95,-11.51 6.08,0 8.32,5.53 8.32,6.48 0,0.5 -0.4,0.6 -0.65,0.6 -0.44,0 -0.54,-0.3 -0.64,-0.7 -1.75,-5.13 -6.23,-5.13 -6.73,-5.13 -2.49,0 -4.48,1.49 -5.63,3.34 -1.49,2.39 -1.49,5.67 -1.49,7.47 z"
       inkscape:connector-curvature="0"
       style="fill:#000000;stroke-width:0" /><path
       id="path6138"
       d="m 548.32,422.54 v 5.48 l -6.92,-0.55 v -1.54 c 3.48,0 3.88,-0.35 3.88,-2.79 v -13.35 c 0,-2.25 -0.55,-2.25 -3.88,-2.25 V 406 h 12 v 1.54 h -1.05 c -3.68,0 -3.78,0.55 -3.78,2.35 v 7.66 c 0,4.94 2.09,9.37 5.88,9.37 0.34,0 0.45,0 0.54,-0.05 -0.15,-0.05 -1.14,-0.65 -1.14,-1.94 0,-1.39 1.05,-2.14 2.14,-2.14 0.9,0 2.14,0.59 2.14,2.19 0,1.59 -1.54,3.04 -3.68,3.04 -3.64,0 -5.43,-3.34 -6.13,-5.48 z"
       inkscape:connector-curvature="0"
       style="fill:#000000;stroke-width:0" /><path
       id="path6140"
       d="m 590.65,437.88 0,0.05 -0.01,0.06 0,0.05 0,0.05 0,0.05 0,0.05 0,0.04 0,0.05 0,0.04 0,0.04 0,0.04 0,0.04 0,0.04 -0.01,0.04 0,0.03 0,0.04 -0.01,0.03 0,0.03 -0.01,0.06 -0.01,0.05 -0.02,0.05 -0.01,0.05 -0.02,0.04 -0.02,0.04 -0.03,0.04 -0.03,0.03 -0.03,0.02 -0.03,0.03 -0.04,0.02 -0.05,0.02 -0.02,0.01 -0.03,0.01 -0.02,0 -0.03,0.01 -0.03,0.01 -0.03,0 -0.03,0.01 -0.03,0 -0.03,0.01 -0.04,0 -0.04,0 -0.03,0 -0.04,0.01 -0.04,0 -0.04,0 -0.05,0 -0.04,0 -0.05,0 -0.05,0.01 -0.05,0 -0.05,0 -0.05,0 c -3.09,-3.19 -7.47,-3.19 -9.07,-3.19 v -1.55 c 1,0 3.94,0 6.53,1.3 v -25.81 c 0,-1.79 -0.15,-2.39 -4.63,-2.39 h -1.6 V 406 h 16.14 v 1.54 h -1.59 c -4.49,0 -4.63,0.55 -4.63,2.39 z"
       inkscape:connector-curvature="0"
       style="fill:#000000;stroke-width:0" /></g></g></g></svg>